<svg width="32" height="32" viewBox="0 0 32 32" fill="none" xmlns="http://www.w3.org/2000/svg">
<rect width="32" height="32" fill="#5509B9"/>
<path d="M16.7517 24.9746C14.6095 24.9746 12.8538 24.5211 11.4845 23.6141C10.1153 22.707 9.2871 21.4113 9 19.7268L12.8427 18.7549C12.9973 19.5108 13.2513 20.1047 13.6047 20.5366C13.9801 20.9685 14.4328 21.2817 14.9629 21.4761C15.515 21.6488 16.1113 21.7352 16.7517 21.7352C17.7235 21.7352 18.4412 21.5732 18.905 21.2493C19.3688 20.9038 19.6007 20.4826 19.6007 19.9859C19.6007 19.4892 19.3798 19.1113 18.9381 18.8521C18.4964 18.5714 17.7897 18.3446 16.818 18.1718L15.8904 18.0099C14.742 17.7939 13.693 17.5023 12.7434 17.1352C11.7937 16.7465 11.0318 16.2174 10.4576 15.5479C9.88339 14.8784 9.59629 14.0146 9.59629 12.9563C9.59629 11.3582 10.1926 10.138 11.3852 9.29577C12.5777 8.43192 14.1457 8 16.0892 8C17.9222 8 19.4461 8.39953 20.6607 9.19859C21.8754 9.99765 22.6705 11.0451 23.0459 12.3408L19.17 13.507C18.9934 12.6864 18.629 12.1033 18.0768 11.7577C17.5468 11.4122 16.8843 11.2394 16.0892 11.2394C15.2942 11.2394 14.6868 11.3798 14.2672 11.6606C13.8476 11.9197 13.6378 12.2869 13.6378 12.762C13.6378 13.2803 13.8586 13.669 14.3003 13.9282C14.742 14.1657 15.3383 14.3493 16.0892 14.4789L17.0168 14.6408C18.2535 14.8568 19.3688 15.1484 20.3626 15.5155C21.3785 15.861 22.1736 16.3685 22.7478 17.038C23.344 17.6859 23.6422 18.5714 23.6422 19.6944C23.6422 21.3789 23.0128 22.6854 21.7539 23.6141C20.5172 24.5211 18.8498 24.9746 16.7517 24.9746Z" fill="white"/>
</svg>
