<svg width="24" height="25" fill="none" xmlns="http://www.w3.org/2000/svg"><path d="M12 24.5c-1.68 0-3.25-.315-4.71-.945a12.118 12.118 0 0 1-3.81-2.565 11.87 11.87 0 0 1-2.55-3.825C.31 15.695 0 14.12 0 12.44c0-1.68.31-3.245.93-4.695.62-1.45 1.47-2.715 2.55-3.795a11.712 11.712 0 0 1 3.81-2.535C8.75.805 10.32.5 12 .5c1.68 0 3.25.305 4.71.915 1.46.61 2.73 1.455 3.81 2.535a11.957 11.957 0 0 1 2.55 3.795c.62 1.45.93 3.015.93 4.695 0 1.68-.31 3.255-.93 4.725a11.87 11.87 0 0 1-2.55 3.825 12.118 12.118 0 0 1-3.81 2.565c-1.46.63-3.03.945-4.71.945ZM16.74 8h4.5a9.72 9.72 0 0 0-2.715-3.45c-1.15-.92-2.475-1.57-3.975-1.95.5.74.925 1.54 1.275 2.4.35.86.655 1.86.915 3ZM9.12 8h5.82c-.22-1.06-.59-2.085-1.11-3.075C13.31 3.935 12.7 3.06 12 2.3c-.64.54-1.18 1.25-1.62 2.13-.44.88-.86 2.07-1.26 3.57Zm-6.96 7.17h4.77c-.06-.54-.095-1.025-.105-1.455-.01-.43-.015-.855-.015-1.275 0-.5.01-.945.03-1.335.02-.39.06-.825.12-1.305h-4.8c-.14.48-.235.91-.285 1.29-.05.38-.075.83-.075 1.35 0 .52.025.985.075 1.395.05.41.145.855.285 1.335Zm7.29 7.23c-.5-.76-.93-1.58-1.29-2.46-.36-.88-.66-1.87-.9-2.97h-4.5c.76 1.42 1.64 2.535 2.64 3.345 1 .81 2.35 1.505 4.05 2.085ZM2.76 8h4.53c.22-1.08.5-2.045.84-2.895.34-.85.77-1.675 1.29-2.475-1.5.38-2.81 1.02-3.93 1.92C4.37 5.45 3.46 6.6 2.76 8ZM12 22.76a9.985 9.985 0 0 0 1.755-2.475c.47-.93.855-2.035 1.155-3.315H9.12c.28 1.2.655 2.28 1.125 3.24.47.96 1.055 1.81 1.755 2.55Zm-3.21-7.59h6.45c.08-.62.13-1.125.15-1.515a23.743 23.743 0 0 0 0-2.37c-.02-.37-.07-.865-.15-1.485H8.79c-.08.62-.13 1.115-.15 1.485a23.743 23.743 0 0 0 0 2.37c.02.39.07.895.15 1.515Zm5.79 7.2c1.44-.46 2.735-1.15 3.885-2.07 1.15-.92 2.075-2.03 2.775-3.33h-4.47c-.26 1.08-.565 2.06-.915 2.94-.35.88-.775 1.7-1.275 2.46Zm2.46-7.2h4.8c.14-.48.235-.925.285-1.335.05-.41.075-.875.075-1.395s-.025-.97-.075-1.35c-.05-.38-.145-.81-.285-1.29h-4.77c.06.7.1 1.235.12 1.605.02.37.03.715.03 1.035 0 .44-.015.855-.045 1.245-.03.39-.075.885-.135 1.485Z" fill="#fff"/></svg>