<svg width="24" height="26" viewBox="0 0 24 26" fill="none" xmlns="http://www.w3.org/2000/svg">
<path d="M12.71 20.29L12.56 20.17C12.5043 20.1322 12.4437 20.1019 12.38 20.08L12.2 20C12.0378 19.9661 11.8698 19.973 11.7109 20.0202C11.5521 20.0673 11.4074 20.1531 11.29 20.27C11.2017 20.3672 11.1306 20.4788 11.08 20.6C11.0043 20.7822 10.9842 20.9827 11.0223 21.1763C11.0603 21.3699 11.1547 21.5479 11.2937 21.688C11.4327 21.828 11.61 21.9238 11.8033 21.9633C11.9966 22.0028 12.1972 21.9843 12.38 21.91C12.4995 21.852 12.6105 21.778 12.71 21.69C12.8488 21.5494 12.9428 21.3708 12.9801 21.1768C13.0175 20.9828 12.9966 20.7821 12.92 20.6C12.8701 20.4844 12.7989 20.3792 12.71 20.29ZM16 6H8C7.20435 6 6.44129 6.31607 5.87868 6.87868C5.31607 7.44129 5 8.20435 5 9V23C5 23.7957 5.31607 24.5587 5.87868 25.1213C6.44129 25.6839 7.20435 26 8 26H16C16.7956 26 17.5587 25.6839 18.1213 25.1213C18.6839 24.5587 19 23.7957 19 23V9C19 8.20435 18.6839 7.44129 18.1213 6.87868C17.5587 6.31607 16.7956 6 16 6ZM17 23C17 23.2652 16.8946 23.5196 16.7071 23.7071C16.5196 23.8946 16.2652 24 16 24H8C7.73478 24 7.48043 23.8946 7.29289 23.7071C7.10536 23.5196 7 23.2652 7 23V9C7 8.73478 7.10536 8.48043 7.29289 8.29289C7.48043 8.10536 7.73478 8 8 8H16C16.2652 8 16.5196 8.10536 16.7071 8.29289C16.8946 8.48043 17 8.73478 17 9V23Z" fill="#181818"/>
</svg>
