<svg width="171" height="36" fill="none" xmlns="http://www.w3.org/2000/svg"><path d="M11.7 26.45c-3.233 0-5.883-.7-7.95-2.1-2.067-1.4-3.317-3.4-3.75-6l5.8-1.5c.233 1.167.617 2.083 1.15 2.75A4.922 4.922 0 0 0 9 21.05c.833.267 1.733.4 2.7.4 1.467 0 2.55-.25 3.25-.75.7-.533 1.05-1.183 1.05-1.95 0-.767-.333-1.35-1-1.75-.667-.433-1.733-.783-3.2-1.05l-1.4-.25c-1.733-.333-3.317-.783-4.75-1.35-1.433-.6-2.583-1.417-3.45-2.45-.867-1.033-1.3-2.367-1.3-4 0-2.467.9-4.35 2.7-5.65 1.8-1.333 4.167-2 7.1-2 2.767 0 5.067.617 6.9 1.85 1.833 1.233 3.033 2.85 3.6 4.85l-5.85 1.8c-.267-1.267-.817-2.167-1.65-2.7-.8-.533-1.8-.8-3-.8s-2.117.217-2.75.65c-.633.4-.95.967-.95 1.7 0 .8.333 1.4 1 1.8.667.367 1.567.65 2.7.85l1.4.25c1.867.333 3.55.783 5.05 1.35 1.533.533 2.733 1.317 3.6 2.35.9 1 1.35 2.367 1.35 4.1 0 2.6-.95 4.617-2.85 6.05-1.867 1.4-4.383 2.1-7.55 2.1ZM35.92 26.45c-2.466 0-4.65-.517-6.55-1.55-1.866-1.067-3.333-2.55-4.4-4.45-1.033-1.933-1.55-4.2-1.55-6.8v-.6c0-2.6.517-4.85 1.55-6.75 1.034-1.933 2.484-3.417 4.35-4.45 1.867-1.067 4.034-1.6 6.5-1.6 2.434 0 4.55.55 6.35 1.65 1.8 1.067 3.2 2.567 4.2 4.5 1 1.9 1.5 4.117 1.5 6.65v2.15H29.82c.067 1.7.7 3.083 1.9 4.15 1.2 1.067 2.667 1.6 4.4 1.6 1.767 0 3.067-.383 3.9-1.15.834-.767 1.467-1.617 1.9-2.55l5.15 2.7c-.466.867-1.15 1.817-2.05 2.85-.866 1-2.033 1.867-3.5 2.6-1.466.7-3.333 1.05-5.6 1.05ZM29.87 10.5h11.6c-.133-1.433-.716-2.583-1.75-3.45-1-.867-2.316-1.3-3.95-1.3-1.7 0-3.05.433-4.05 1.3s-1.616 2.017-1.85 3.45ZM50.478 25.75V.95h6.2v2.8h.9c.367-1 .967-1.733 1.8-2.2.867-.467 1.867-.7 3-.7h3v5.6h-3.1c-1.6 0-2.916.433-3.95 1.3-1.033.833-1.55 2.133-1.55 3.9v14.1h-6.3ZM67.302 35.75V.95h6.2v3h.9c.567-.967 1.45-1.817 2.65-2.55 1.2-.767 2.917-1.15 5.15-1.15 2 0 3.85.5 5.55 1.5 1.7.967 3.067 2.4 4.1 4.3 1.034 1.9 1.55 4.2 1.55 6.9v.8c0 2.7-.516 5-1.55 6.9-1.033 1.9-2.4 3.35-4.1 4.35-1.7.967-3.55 1.45-5.55 1.45-1.5 0-2.766-.183-3.8-.55-1-.333-1.816-.767-2.45-1.3-.6-.567-1.083-1.133-1.45-1.7h-.9v12.85h-6.3Zm13-14.8c1.967 0 3.584-.617 4.85-1.85 1.3-1.267 1.95-3.1 1.95-5.5v-.5c0-2.4-.65-4.217-1.95-5.45-1.3-1.267-2.916-1.9-4.85-1.9-1.933 0-3.55.633-4.85 1.9-1.3 1.233-1.95 3.05-1.95 5.45v.5c0 2.4.65 4.233 1.95 5.5 1.3 1.233 2.917 1.85 4.85 1.85ZM107.487 26.45c-2.467 0-4.65-.517-6.55-1.55-1.867-1.067-3.333-2.55-4.4-4.45-1.033-1.933-1.55-4.2-1.55-6.8v-.6c0-2.6.517-4.85 1.55-6.75 1.033-1.933 2.483-3.417 4.35-4.45 1.867-1.067 4.033-1.6 6.5-1.6 2.433 0 4.55.55 6.35 1.65 1.8 1.067 3.2 2.567 4.2 4.5 1 1.9 1.5 4.117 1.5 6.65v2.15h-18.05c.067 1.7.7 3.083 1.9 4.15 1.2 1.067 2.667 1.6 4.4 1.6 1.767 0 3.067-.383 3.9-1.15.833-.767 1.467-1.617 1.9-2.55l5.15 2.7c-.467.867-1.15 1.817-2.05 2.85-.867 1-2.033 1.867-3.5 2.6-1.467.7-3.333 1.05-5.6 1.05Zm-6.05-15.95h11.6c-.133-1.433-.717-2.583-1.75-3.45-1-.867-2.317-1.3-3.95-1.3-1.7 0-3.05.433-4.05 1.3s-1.617 2.017-1.85 3.45ZM122.045 25.75V.95h6.2V4.2h.9c.4-.867 1.15-1.683 2.25-2.45 1.1-.8 2.766-1.2 5-1.2 1.933 0 3.616.45 5.05 1.35 1.466.867 2.6 2.083 3.4 3.65.8 1.533 1.2 3.333 1.2 5.4v14.8h-6.3v-14.3c0-1.867-.467-3.267-1.4-4.2-.9-.933-2.2-1.4-3.9-1.4-1.934 0-3.434.65-4.5 1.95-1.067 1.267-1.6 3.05-1.6 5.35v12.6h-6.3ZM160.155 26.45c-3.233 0-5.883-.7-7.95-2.1-2.067-1.4-3.317-3.4-3.75-6l5.8-1.5c.233 1.167.617 2.083 1.15 2.75a4.925 4.925 0 0 0 2.05 1.45c.833.267 1.733.4 2.7.4 1.467 0 2.55-.25 3.25-.75.7-.533 1.05-1.183 1.05-1.95 0-.767-.333-1.35-1-1.75-.667-.433-1.733-.783-3.2-1.05l-1.4-.25c-1.733-.333-3.317-.783-4.75-1.35-1.433-.6-2.583-1.417-3.45-2.45-.867-1.033-1.3-2.367-1.3-4 0-2.467.9-4.35 2.7-5.65 1.8-1.333 4.167-2 7.1-2 2.767 0 5.067.617 6.9 1.85 1.833 1.233 3.033 2.85 3.6 4.85l-5.85 1.8c-.267-1.267-.817-2.167-1.65-2.7-.8-.533-1.8-.8-3-.8s-2.117.217-2.75.65c-.633.4-.95.967-.95 1.7 0 .8.333 1.4 1 1.8.667.367 1.567.65 2.7.85l1.4.25c1.867.333 3.55.783 5.05 1.35 1.533.533 2.733 1.317 3.6 2.35.9 1 1.35 2.367 1.35 4.1 0 2.6-.95 4.617-2.85 6.05-1.867 1.4-4.383 2.1-7.55 2.1Z" fill="#fff"/></svg>