<svg width="78" height="78" viewBox="0 0 78 78" fill="none" xmlns="http://www.w3.org/2000/svg">
<path d="M39.4307 62.6021C31.977 62.6021 26.0109 58.574 26.0109 58.574L16.8552 61.5616L19.8261 52.6971C19.8261 52.6971 15.0806 46.1275 15.0806 38.252C15.0806 24.8037 25.9824 13.9019 39.4307 13.9019C52.8789 13.9019 63.7808 24.8037 63.7808 38.252C63.7808 51.7002 52.8789 62.6021 39.4307 62.6021ZM39.4307 9.26379C23.421 9.26379 10.4425 22.2423 10.4425 38.252C10.4425 46.1979 14.649 53.3001 14.649 53.3001L9.58154 68.7364L25.4649 63.6603C25.4649 63.6603 31.3616 67.2401 39.4307 67.2401C55.4403 67.2401 68.4188 54.2616 68.4188 38.252C68.4188 22.2423 55.4403 9.26379 39.4307 9.26379Z" fill="white"/>
<path d="M63.0541 44.949C59.5053 58.1929 45.8922 66.0525 32.6483 62.5038C19.4043 58.9551 11.5448 45.3419 15.0934 32.0979C18.6421 18.8539 32.2552 10.9942 45.4992 14.5429C58.7433 18.0915 66.6029 31.7049 63.0541 44.949Z" fill="#11C76F"/>
<path d="M16.9229 61.5685L19.5369 53.5199L25.3842 58.8169L16.9229 61.5685Z" fill="#11C76F"/>
<path d="M54.2914 45.1268C54.3242 45.7718 54.7219 47.7033 53.0005 49.5607C51.2796 51.4197 47.6186 52.2796 45.8848 51.7953C44.1516 51.3111 38.4199 49.8117 34.6831 46.3264C30.9447 42.8401 27.9178 39.1704 26.6796 36.4655C25.4413 33.7595 25.5101 32.1537 25.5789 31.397C25.6477 30.6403 26.0454 27.1346 28.3924 25.6325C28.3924 25.6325 29.1754 25.1359 29.5839 25.1359H31.868C31.868 25.1359 32.4801 25.2417 32.7607 25.8802C33.0417 26.5181 34.9679 31.0423 35.1109 31.39C35.2538 31.7399 35.6279 32.6035 35.0281 33.3769C34.4283 34.1503 33.175 35.5949 33.175 35.5949C33.175 35.5949 32.6784 36.0404 33.1089 36.7531C33.5383 37.4646 35.0518 39.8116 37.0301 41.5851C39.01 43.3587 41.4327 44.663 42.6409 45.0607C43.849 45.4584 44.114 44.9285 44.5767 44.3325C45.0405 43.737 46.4808 41.9167 46.4808 41.9167C46.4808 41.9167 46.9774 41.1874 47.9529 41.6346C48.9294 42.0817 53.6793 44.3825 53.6793 44.3825C53.6793 44.3825 54.2586 44.4814 54.2914 45.1268Z" fill="white"/>
</svg>
